<?xml version="1.0" encoding="UTF-8"?>
<svg width="100px" height="100px" viewBox="0 0 100 100" version="1.1" xmlns="http://www.w3.org/2000/svg" xmlns:xlink="http://www.w3.org/1999/xlink">
    <!-- Generator: Sketch 46.2 (44496) - http://www.bohemiancoding.com/sketch -->
    <title>icon</title>
    <desc>Created with Sketch.</desc>
    <defs></defs>
    <g id="Icons" stroke="none" stroke-width="1" fill="none" fill-rule="evenodd">
        <g id="icon" fill="#6772E5">
            <path d="M50,100 C22.3857625,100 0,77.6142375 0,50 C0,22.3857625 22.3857625,0 50,0 C77.6142375,0 100,22.3857625 100,50 C100,77.6142375 77.6142375,100 50,100 Z M84.9839786,50.8315554 C84.9839786,45.926028 82.6078638,42.0552603 78.0664186,42.0552603 C73.5058111,42.0552603 70.7464519,45.926028 70.7464519,50.793231 C70.7464519,56.5610581 74.0040287,59.473715 78.6796095,59.473715 C80.9599132,59.473715 82.6845127,58.9563351 83.9875434,58.2281709 L83.9875434,54.3957276 C82.6845127,55.047243 81.1898598,55.4496495 79.2928004,55.4496495 C77.4340654,55.4496495 75.7861148,54.7981342 75.5753304,52.5369927 L84.9456542,52.5369927 C84.9456542,52.2878838 84.9839786,51.2914486 84.9839786,50.8315554 Z M75.5178438,49.0111449 C75.5178438,46.8458144 76.8400367,45.9451903 78.0472563,45.9451903 C79.2161515,45.9451903 80.4616956,46.8458144 80.4616956,49.0111449 L75.5178438,49.0111449 Z M63.3498364,42.0552603 C61.4719393,42.0552603 60.2647196,42.9367223 59.5940421,43.5499132 L59.3449332,42.3618558 L55.1292457,42.3618558 L55.1292457,64.705 L59.9197997,63.6894025 L59.9389619,58.2664953 C60.6288017,58.764713 61.6443992,59.473715 63.3306742,59.473715 C66.7607109,59.473715 69.8841522,56.7143558 69.8841522,50.6399332 C69.86499,45.0828905 66.7032243,42.0552603 63.3498364,42.0552603 Z M62.2001035,55.2580274 C61.0695327,55.2580274 60.3988551,54.8556208 59.9389619,54.3574032 L59.9197997,47.248221 C60.4180174,46.6925167 61.1078571,46.3092724 62.2001035,46.3092724 C63.9438652,46.3092724 65.1510848,48.2638184 65.1510848,50.7740688 C65.1510848,53.3418057 63.9630274,55.2580274 62.2001035,55.2580274 Z M48.5374433,40.9246896 L53.3471595,39.8899299 L53.3471595,36 L48.5374433,37.0155975 L48.5374433,40.9246896 Z M48.5374433,42.381018 L48.5374433,59.1479573 L53.3471595,59.1479573 L53.3471595,42.381018 L48.5374433,42.381018 Z M43.3828071,43.799022 L43.0762116,42.381018 L38.9371729,42.381018 L38.9371729,59.1479573 L43.727727,59.1479573 L43.727727,47.784763 C44.8582977,46.3092724 46.7745194,46.5775434 47.3685481,46.7883278 L47.3685481,42.381018 C46.7553571,42.1510714 44.5133778,41.7295027 43.3828071,43.799022 Z M33.8016989,38.2228171 L29.1261182,39.2192523 L29.1069559,54.5681876 C29.1069559,57.4041956 31.2339619,59.4928772 34.06997,59.4928772 C35.6412717,59.4928772 36.7910047,59.2054439 37.4233578,58.860524 L37.4233578,54.9705941 C36.8101669,55.2197029 33.7825367,56.1011649 33.7825367,53.2651569 L33.7825367,46.4625701 L37.4233578,46.4625701 L37.4233578,42.381018 L33.7825367,42.381018 L33.8016989,38.2228171 Z M20.8480407,47.248221 C20.8480407,46.5008945 21.4612316,46.2134613 22.4768291,46.2134613 C23.9331575,46.2134613 25.7727303,46.6541923 27.2290587,47.4398431 L27.2290587,42.9367223 C25.6385948,42.3043692 24.0672931,42.0552603 22.4768291,42.0552603 C18.5868992,42.0552603 16,44.0864553 16,47.4781676 C16,52.7669393 23.2816422,51.9238017 23.2816422,54.2041055 C23.2816422,55.0855674 22.5151535,55.3730007 21.4420694,55.3730007 C19.8516055,55.3730007 17.8204105,54.7214853 16.2107844,53.8400234 L16.2107844,58.4006308 C17.9928705,59.1671195 19.7941188,59.4928772 21.4420694,59.4928772 C25.4278104,59.4928772 28.1680073,57.5191689 28.1680073,54.0891322 C28.1488451,48.3787917 20.8480407,49.3943892 20.8480407,47.248221 Z" id="Combined-Shape"></path>
        </g>
    </g>
</svg>